<?xml version="1.0" encoding="utf-8"?>
<!-- Generator: Adobe Illustrator 23.0.1, SVG Export Plug-In . SVG Version: 6.00 Build 0)  -->
<svg version="1.1" id="图层_1" xmlns="http://www.w3.org/2000/svg" xmlns:xlink="http://www.w3.org/1999/xlink" x="0px" y="0px"
	 viewBox="0 0 1000 1000" style="enable-background:new 0 0 1000 1000;fill:#333;" xml:space="preserve">
<style type="text/css">
	.st0{fill-rule:evenodd;clip-rule:evenodd;}
</style>
<path d="M915,909.3H85c-35.8,0-65-28.7-65-63.9V154.6c0-35.2,29.2-63.9,65-63.9h830c35.8,0,65,28.7,65,63.9v690.8
	C980,880.6,950.8,909.3,915,909.3z M110,819.3h780V180.7H110V819.3z"/>
<g>
	<path class="st0" d="M248.1,567h340.1c1.7,0,3.1,1.8,3.1,4v82c0,2.2-1.4,4-3.1,4H248.1c-1.7,0-3.1-1.8-3.1-4v-82
		C245,568.8,246.4,567,248.1,567z"/>
	<path class="st0" d="M248.5,327h503.9c1.9,0,3.5,1.8,3.5,4v82c0,2.2-1.6,4-3.5,4H248.5c-1.9,0-3.5-1.8-3.5-4v-82
		C245,328.8,246.6,327,248.5,327L248.5,327z"/>
</g>
</svg>
